<?xml version="1.0" encoding="UTF-8"?><svg id="_ÎÓÈ_1" xmlns="http://www.w3.org/2000/svg" xmlns:xlink="http://www.w3.org/1999/xlink" viewBox="0 0 3994.92 3330.3"><defs><style>.cls-1{fill:#fff;}.cls-2{fill:url(#_ÂÁ_Ï_ÌÌ_È_ËÂÌÚ_16);opacity:.47;}</style><linearGradient id="_ÂÁ_Ï_ÌÌ_È_ËÂÌÚ_16" x1="74.4" y1="1780.74" x2="3994.92" y2="1780.74" gradientUnits="userSpaceOnUse"><stop offset=".57" stop-color="#ffa206"/><stop offset=".79" stop-color="#ffa206"/></linearGradient></defs><g><path class="cls-2" d="M3992.68,2208.34c-6.03,19.48-23.29,33.35-43.62,35.04l-538.22,44.74c-26.79,60.91-562.08,1039.43-594.4,1097.06L74.4,2466.05V176.3H3186.52c107.74,146.14,195.79,307.32,261.99,479.66,72.8,189.48,118.02,389.65,134.43,594.95,4.63,57.86,6.98,116.87,6.98,175.39,0,100.07-6.86,200.58-20.4,298.74-3.98,28.88-8.6,58.02-13.81,86.96l420.79,342.78c15.81,12.89,22.22,34.08,16.18,53.56Z"/><g><path class="cls-1" d="M3896.02,2003.09c-6.03,19.48-23.29,33.35-43.62,35.04l-538.22,44.74c-10.26,193.43-651.5,1160.44-739.77,1280.21H-22.26V-28.95s3112.12,0,3112.12,0c107.74,146.14,195.79,307.32,261.99,479.66,72.8,189.48,118.02,389.65,134.43,594.95,4.63,57.86,6.98,116.87,6.98,175.39,0,100.07-6.86,200.58-20.4,298.74-3.98,28.88-8.6,58.02-13.81,86.96l420.79,342.78c15.81,12.89,22.22,34.08,16.18,53.56Z"/><path d="M3870.87,1939.72l-398.12-324.32c3.32-19.97,6.36-39.96,9.09-59.84,13.85-100.41,20.87-203.22,20.87-305.56,0-59.84-2.4-120.2-7.14-179.39-16.79-210.06-63.08-414.92-137.59-608.88-61.84-160.96-142.26-314.26-246.96-461.73h-124.26c228.14,297.41,376.47,669.96,409.13,1078.59,4.52,56.48,6.82,113.65,6.82,171.41,0,99.21-6.8,196.69-19.93,291.91-5.28,38.31-11.59,76.25-18.88,113.8l443.81,361.54-568.12,47.23c50.78,351.02-659.71,1138.12-760.65,1269.71h124.25c76.81-96.86,590.14-527.93,703.99-1174.98l508.81-42.3c40.65-3.38,75.18-31.11,87.24-70.08,12.07-38.96-.74-81.35-32.36-107.11Z"/></g></g><g><g><polygon points="1678.91 867.97 1541.32 858.27 1454.65 1004.98 1427.36 858.27 1253.35 880 1350.93 1131.99 1346.84 1343.23 1508.56 1343.23 1517.44 1130.63 1677.9 907.61 1675.41 1004.98 1777.09 999.54 1776.4 1321.49 1920.39 1314.02 1946.32 992.07 2048 988 2051.41 844 1679.5 844.68 1678.91 867.97"/><polygon points="2308.67 841.29 2307.99 1103.46 2232.24 1103.46 2242.48 859.62 2080.07 852.15 2067.1 1329.64 2219.96 1329.64 2224.74 1180.89 2303.21 1180.89 2304.58 1337.79 2475.18 1329.64 2464.26 845.36 2308.67 841.29"/><path d="M2848.96,1099.22c-5.34-15.05-13.09-28.02-23.2-38.89-10.12-10.87-22.47-19.58-37.02-26.15-14.55-6.56-30.93-10.41-49.13-11.55-3.63-.45-8.31-.62-13.99-.51-5.68,.12-11.82,.12-18.42,0-6.6-.11-13.26-.51-19.96-1.19s-12.85-1.87-18.42-3.57c-5.58-1.7-10.12-4.08-13.65-7.13s-5.41-7.07-5.63-12.06c-.22-4.3,.9-8.03,3.41-11.21,2.51-3.17,5.8-5.71,9.89-7.64,4.09-1.92,8.75-3.45,13.99-4.58,5.24-1.13,10.41-1.98,15.52-2.55,5.12-.56,10.01-.9,14.67-1.02,4.66-.11,8.48-.17,11.43-.17,16.16,0,32.7,1.76,49.64,5.26,16.94,3.51,33.15,7.87,48.62,13.07l12.97-137.88c-10.01-4.75-20.59-8.71-31.73-11.89-11.14-3.17-22.57-5.77-34.29-7.81s-23.49-3.45-35.31-4.25c-11.82-.79-23.32-1.19-34.46-1.19-25.03,0-49.25,3.96-72.68,11.89-23.42,7.93-44.19,19.31-62.27,34.13-18.08,14.83-32.53,32.83-43.33,54-10.8,21.17-16.21,45.12-16.21,71.83,0,19.48,3.19,37.53,9.55,54.17,6.36,16.64,15.3,31.02,26.78,43.13,11.48,12.12,25.25,21.57,41.28,28.36,16.04,6.79,33.83,10.19,53.4,10.19h10.92c4.56,0,9.43,.23,14.67,.68,5.24,.46,10.58,1.19,16.04,2.21,5.46,1.02,10.36,2.5,14.67,4.41,4.32,1.93,7.85,4.41,10.58,7.47s4.09,6.74,4.09,11.04c0,6.34-1.93,11.21-5.8,14.6-3.87,3.4-8.58,5.94-14.16,7.64-5.58,1.7-11.43,2.72-17.57,3.06-6.14,.34-11.38,.51-15.7,.51-22.74,0-45.89-3-69.43-9-23.54-5.99-44.99-14.77-64.32-26.32l-15.01,139.92c9.78,4.53,20.98,9.34,33.61,14.43s25.76,9.85,39.41,14.26,27.13,8.1,40.43,11.04c13.31,2.94,25.54,4.41,36.68,4.41,28.88,0,55.91-3.85,81.03-11.55,25.13-7.69,47.09-19.24,65.85-34.64,18.77-15.39,33.56-34.69,44.36-57.9,10.8-23.2,16.21-50.31,16.21-81.34,0-18.11-2.68-34.69-8.02-49.75Z"/></g><g><path d="M1438.62,1401.2l-135.8,452.36,174.01,16.98,17.06-76.75h77.79l20.47,76.75,169.23-21.73-133.07-457.11-189.71,9.51Zm69.6,288.67l25.25-118.18,25.93,118.18h-51.18Z"/><path d="M1959.46,1565.91c11.72-9.05,25.2-15.79,40.43-20.21s31.27-6.62,48.11-6.62c6.6,0,13.19,.34,19.79,1.02,6.6,.68,13.19,1.93,19.79,3.74l19.11-143.31c-14.11-6.79-29.39-11.43-45.89-13.92-16.5-2.49-32.58-3.74-48.28-3.74-41.63,0-78.42,7.47-110.38,22.41-31.95,14.94-58.74,35.32-80.35,61.13-21.61,25.81-37.99,55.87-49.13,90.17-11.14,34.3-16.72,70.81-16.72,109.52,0,29.21,5.29,56.43,15.87,81.68,10.58,25.25,25.08,47.15,43.5,65.71,18.42,18.57,40.14,33.17,65.17,43.81,25.03,10.65,51.98,15.96,80.86,15.96,10.01,0,20.47-.68,31.39-2.04,10.92-1.36,21.84-3.34,32.75-5.94,10.92-2.6,21.55-5.65,31.9-9.17,10.36-3.51,19.96-7.52,28.83-12.06l13.65-159.62c-7.05,4.08-14.79,8.04-23.2,11.89-8.41,3.85-17.06,7.25-25.93,10.19-8.87,2.95-17.86,5.32-26.95,7.13-9.09,1.82-17.86,2.72-26.27,2.72-11.14,0-21.38-1.36-30.71-4.08-9.33-2.72-17.4-6.9-24.23-12.57-6.82-5.65-12.11-12.79-15.87-21.4-3.75-8.6-5.63-18.79-5.63-30.56,0-18.34,3.46-34.3,10.41-47.88,6.94-13.58,16.26-24.9,27.98-33.96Z"/><polygon points="2112.82 1553.34 2214.5 1547.91 2213.82 1869.86 2357.8 1862.39 2383.74 1540.44 2485.41 1536.36 2488.82 1392.37 2116.92 1393.05 2112.82 1553.34"/><path d="M2848.96,1647.58c-5.34-15.05-13.09-28.02-23.2-38.89-10.12-10.87-22.47-19.58-37.02-26.15-14.55-6.56-30.93-10.41-49.13-11.55-3.63-.45-8.31-.62-13.99-.51-5.68,.12-11.82,.12-18.42,0-6.6-.11-13.26-.51-19.96-1.19-6.7-.68-12.85-1.87-18.42-3.57-5.58-1.7-10.12-4.08-13.65-7.13-3.53-3.06-5.41-7.07-5.63-12.06-.22-4.3,.9-8.03,3.41-11.21,2.51-3.17,5.8-5.71,9.89-7.64,4.09-1.92,8.75-3.45,13.99-4.58,5.24-1.13,10.41-1.98,15.52-2.55,5.12-.56,10.01-.9,14.67-1.02,4.66-.11,8.48-.17,11.43-.17,16.16,0,32.7,1.76,49.64,5.26,16.94,3.51,33.15,7.87,48.62,13.07l12.97-137.88c-10.01-4.75-20.59-8.71-31.73-11.89-11.14-3.17-22.57-5.77-34.29-7.81-11.72-2.04-23.49-3.45-35.31-4.25-11.82-.79-23.32-1.19-34.46-1.19-25.03,0-49.25,3.97-72.68,11.89-23.42,7.93-44.19,19.31-62.27,34.13-18.08,14.83-32.53,32.83-43.33,54-10.8,21.17-16.21,45.12-16.21,71.83,0,19.48,3.19,37.53,9.55,54.17,6.36,16.64,15.3,31.02,26.78,43.13,11.48,12.12,25.25,21.57,41.28,28.36,16.04,6.79,33.83,10.19,53.4,10.19h10.92c4.56,0,9.43,.23,14.67,.68,5.24,.46,10.58,1.19,16.04,2.21,5.46,1.02,10.36,2.5,14.67,4.41,4.32,1.93,7.85,4.41,10.58,7.47,2.73,3.06,4.09,6.74,4.09,11.04,0,6.34-1.93,11.21-5.8,14.6-3.87,3.4-8.58,5.94-14.16,7.64-5.58,1.7-11.43,2.72-17.57,3.06-6.14,.34-11.38,.51-15.7,.51-22.74,0-45.89-3-69.43-9-23.54-5.99-44.99-14.77-64.32-26.32l-15.01,139.92c9.78,4.53,20.98,9.34,33.61,14.43s25.76,9.85,39.41,14.26c13.65,4.41,27.13,8.1,40.43,11.04,13.31,2.94,25.54,4.41,36.68,4.41,28.88,0,55.91-3.85,81.03-11.55,25.13-7.69,47.09-19.24,65.85-34.64,18.77-15.39,33.56-34.69,44.36-57.9,10.8-23.2,16.21-50.31,16.21-81.34,0-18.11-2.68-34.69-8.02-49.75Z"/></g><g><path d="M871.6,1193.67l.29-94.28,30.1,105.82c33.97,14.89,64.9,35.39,91.6,60.32l62.54-188.56-1.36,262.86,155.59-6.79,31.39-498.55h-183.56l-92.81,238.41-69.6-224.82-175.38,6.79-4.76,327.66c17.97-3.06,36.45-4.68,55.3-4.68,35.14,0,68.96,5.56,100.66,15.81Z"/><path d="M1075.89,1388.29c13.3,35.35,20.58,73.62,20.58,113.59,0,94.34-40.52,179.26-105.17,238.48l-3.07,137.65,172.65-3.4-.68-201.05,119.42-3.4,6.82-105.28h-125.56v-42.79l144.67-7.47c1.82-21.28,3.29-42.33,4.43-63.17,1.14-20.83,2.39-41.88,3.75-63.17h-237.85Z"/></g><g><ellipse cx="778.91" cy="1497.06" rx="301.33" ry="299.93"/><g><polygon class="cls-1" points="689.95 1517.58 656.98 1377.41 575.57 1384.93 652.86 1625.27 738.04 1620.48 800.9 1382.54 721.9 1377.41 689.95 1517.58"/><path class="cls-1" d="M978.22,1506.21c-2.69-7.58-6.59-14.1-11.68-19.57-5.09-5.47-11.31-9.85-18.63-13.16-7.32-3.3-15.57-5.24-24.73-5.81-1.83-.23-4.18-.31-7.04-.26-2.86,.06-5.95,.06-9.27,0-3.32-.06-6.67-.26-10.05-.6-3.37-.34-6.47-.94-9.27-1.79-2.81-.85-5.09-2.05-6.87-3.59-1.78-1.54-2.72-3.56-2.83-6.07-.11-2.16,.46-4.04,1.72-5.64,1.26-1.59,2.92-2.88,4.98-3.85,2.06-.97,4.41-1.74,7.04-2.31,2.64-.57,5.24-1,7.81-1.28,2.58-.28,5.04-.45,7.38-.51,2.34-.06,4.27-.09,5.75-.09,8.13,0,16.46,.88,24.99,2.65,8.53,1.77,16.68,3.96,24.47,6.58l6.53-69.4c-5.04-2.39-10.36-4.38-15.97-5.98-5.61-1.59-11.36-2.91-17.26-3.93-5.9-1.03-11.82-1.73-17.77-2.14-5.95-.4-11.74-.6-17.35-.6-12.6,0-24.79,2-36.58,5.98-11.79,3.99-22.24,9.72-31.34,17.18-9.1,7.47-16.38,16.53-21.81,27.18-5.44,10.66-8.16,22.71-8.16,36.15,0,9.8,1.61,18.89,4.81,27.26s7.7,15.62,13.48,21.71c5.78,6.1,12.71,10.85,20.78,14.27,8.07,3.42,17.03,5.13,26.88,5.13h5.5c2.29,0,4.75,.12,7.38,.34,2.64,.23,5.32,.6,8.07,1.11,2.75,.51,5.21,1.26,7.38,2.22,2.17,.97,3.95,2.22,5.32,3.76,1.37,1.54,2.06,3.39,2.06,5.56,0,3.19-.97,5.64-2.92,7.35-1.95,1.71-4.32,2.99-7.13,3.85-2.81,.85-5.75,1.37-8.84,1.54-3.09,.17-5.73,.26-7.9,.26-11.45,0-23.1-1.51-34.95-4.53-11.85-3.02-22.64-7.44-32.37-13.25l-7.56,70.43c4.92,2.28,10.56,4.7,16.92,7.26,6.35,2.56,12.97,4.96,19.84,7.18,6.87,2.22,13.65,4.08,20.35,5.56,6.7,1.48,12.85,2.22,18.46,2.22,14.54,0,28.14-1.94,40.79-5.81,12.65-3.87,23.7-9.68,33.15-17.44,9.45-7.75,16.89-17.46,22.33-29.15,5.44-11.68,8.16-25.32,8.16-40.94,0-9.12-1.35-17.46-4.04-25.04Z"/></g></g></g></svg>