<svg xmlns="http://www.w3.org/2000/svg" width="16" height="17" viewBox="0 0 16 17"><path fill="#fff" fill-rule="evenodd" d="M15.245.93H.815a.683.683 0 00-.496.216.68.68 0 00-.216.495v14.393c0 .185.072.35.216.494.145.144.31.217.496.217h14.43a.686.686 0 00.496-.217.68.68 0 00.216-.494V1.641a.68.68 0 00-.216-.495.683.683 0 00-.496-.216zm-4.459 7.907c0 .762-.268 1.41-.805 1.946a2.66 2.66 0 01-1.951.803 2.66 2.66 0 01-1.95-.803 2.647 2.647 0 01-.806-1.946c0-.762.268-1.41.805-1.946a2.66 2.66 0 011.951-.803 2.66 2.66 0 011.95.803c.538.536.806 1.184.806 1.946zm3.19 5.93H2.084V7.85h1.3a5.34 5.34 0 00-.093.988c0 1.298.465 2.41 1.394 3.336.929.927 2.043 1.39 3.344 1.39 1.3 0 2.415-.463 3.344-1.39.93-.926 1.394-2.038 1.394-3.336 0-.33-.031-.659-.093-.988h1.3v6.919zm0-8.895h-2.973V2.907h2.972v2.965z"/></svg>