<?xml version="1.0" encoding="UTF-8"?>
<svg width="10px" height="10px" viewBox="0 0 10 10" version="1.1" xmlns="http://www.w3.org/2000/svg" xmlns:xlink="http://www.w3.org/1999/xlink">
    <!-- Generator: Sketch 63.1 (92452) - https://sketch.com -->
    <title>linkedin</title>
    <desc>Created with Sketch.</desc>
    <g id="Page-1" stroke="none" stroke-width="1" fill="none" fill-rule="evenodd">
        <g id="travolution_home" transform="translate(-1119.000000, -146.000000)" fill="#FFFFFF" fill-rule="nonzero">
            <g id="Group-18" transform="translate(0.000000, 121.000000)">
                <g id="Group-17">
                    <g id="Group-5" transform="translate(1036.000000, 15.000000)">
                        <g id="linkedin" transform="translate(83.000000, 10.000000)">
                            <path d="M2.23833333,3.32375 L2.23833333,10 L0.165,10 L0.165,3.32375 L2.23833333,3.32375 Z M7.51625,3.15583333 C9.61375,3.15583333 10,4.53791667 10,6.33208333 L10,6.33208333 L10,9.99958333 L7.92875,10 L7.92853103,6.63757136 C7.92486961,5.88264928 7.86234127,4.98166667 6.85083333,4.98166667 C5.77291667,4.98166667 5.60791667,5.82333333 5.60791667,6.69375 L5.60791667,6.69375 L5.60791667,9.99958333 L3.53708333,9.99958333 L3.53708333,3.32333333 L5.52583333,3.32333333 L5.52583333,4.23375 L5.555,4.23375 C5.83125,3.70916667 6.50791667,3.15583333 7.51625,3.15583333 Z M1.20083333,-6.21724894e-15 C1.86333333,-6.21724894e-15 2.40125,0.537916667 2.40166667,1.20083333 C2.40166667,1.86375 1.86375,2.41291667 1.20083333,2.41291667 C0.537916667,2.41291667 3.99680289e-15,1.86375 3.99680289e-15,1.20083333 C3.99680289e-15,0.537916667 0.537916667,-6.21724894e-15 1.20083333,-6.21724894e-15 Z" id="Combined-Shape"></path>
                        </g>
                    </g>
                </g>
            </g>
        </g>
    </g>
</svg>