<?xml version="1.0" encoding="UTF-8"?>
<svg width="12px" height="10px" viewBox="0 0 12 10" version="1.1" xmlns="http://www.w3.org/2000/svg" xmlns:xlink="http://www.w3.org/1999/xlink">
    <!-- Generator: Sketch 63.1 (92452) - https://sketch.com -->
    <title>twitter</title>
    <desc>Created with Sketch.</desc>
    <g id="Page-1" stroke="none" stroke-width="1" fill="none" fill-rule="evenodd">
        <g id="travolution_home" transform="translate(-1092.000000, -146.000000)" fill="#FFFFFF" fill-rule="nonzero">
            <g id="Group-18" transform="translate(0.000000, 121.000000)">
                <g id="Group-17">
                    <g id="Group-5" transform="translate(1036.000000, 15.000000)">
                        <g id="twitter" transform="translate(56.000000, 10.000000)">
                            <path d="M11.7647059,1.13161765 C11.3272059,1.32352941 10.8610294,1.45073529 10.375,1.5125 C10.875,1.21397059 11.2566176,0.744852941 11.4360294,0.179411765 C10.9698529,0.457352941 10.4551471,0.653676471 9.90661765,0.763235294 C9.46397059,0.291911765 8.83308824,0 8.14485294,0 C6.80955882,0 5.73455882,1.08382353 5.73455882,2.4125 C5.73455882,2.60367647 5.75073529,2.7875 5.79044118,2.9625 C3.78529412,2.86470588 2.01102941,1.90367647 0.819117647,0.439705882 C0.611029412,0.800735294 0.488970588,1.21397059 0.488970588,1.65882353 C0.488970588,2.49411765 0.919117647,3.23455882 1.56029412,3.66323529 C1.17279412,3.65588235 0.792647059,3.54338235 0.470588235,3.36617647 C0.470588235,3.37352941 0.470588235,3.38308824 0.470588235,3.39264706 C0.470588235,4.56470588 1.30661765,5.53823529 2.40294118,5.7625 C2.20661765,5.81617647 1.99264706,5.84191176 1.77058824,5.84191176 C1.61617647,5.84191176 1.46029412,5.83308824 1.31397059,5.80073529 C1.62647059,6.75588235 2.51323529,7.45808824 3.56764706,7.48088235 C2.74705882,8.12279412 1.70514706,8.50955882 0.577205882,8.50955882 C0.379411765,8.50955882 0.189705882,8.50073529 -5.68434189e-14,8.47647059 C1.06838235,9.16544118 2.33455882,9.55882353 3.7,9.55882353 C8.13823529,9.55882353 10.5647059,5.88235294 10.5647059,2.69558824 C10.5647059,2.58897059 10.5610294,2.48602941 10.5558824,2.38382353 C11.0345588,2.04411765 11.4367647,1.61985294 11.7647059,1.13161765 Z" id="Path"></path>
                        </g>
                    </g>
                </g>
            </g>
        </g>
    </g>
</svg>