<svg xmlns="http://www.w3.org/2000/svg" width="22" height="16" viewBox="0 0 22 16"><path fill="#fff" fill-rule="evenodd" d="M21.236 3.586a76.924 76.924 0 010 8.535c0 .904-.285 1.668-.857 2.293-.572.625-1.27.937-2.094.937-2.047.107-4.427.16-7.139.16-2.712 0-5.092-.053-7.139-.16-.824 0-1.522-.312-2.094-.937-.571-.625-.857-1.39-.857-2.293a76.924 76.924 0 01-.12-4.268c0-.93.053-2.353.16-4.267 0-.904.279-1.668.837-2.293.559-.625 1.25-.937 2.074-.937 1.941-.107 4.201-.16 6.78-.16h.718c2.58 0 4.84.053 6.78.16.824 0 1.522.312 2.094.937.572.625.857 1.389.857 2.293zM9.192 11.762l5.783-3.909-5.783-3.948v7.857z"/></svg>