<svg viewBox="0 0 260 116" fill="none" xmlns="http://www.w3.org/2000/svg">
<g clip-path="url(#clip0_18_2395)">
<path d="M131.16 4.54005L116.14 3.49005L106.67 19.5001L103.69 3.49005L84.7 5.86005L95.35 33.3701L94.9 56.4301H112.56L113.53 33.2201L131.05 8.87005L130.78 19.5001L141.88 18.9101L141.8 54.0601L157.52 53.2401L160.35 18.0901L171.45 17.6501L171.83 1.93005L131.22 2.00005L131.16 4.54005Z" fill="#010101"/>
<path d="M199.91 1.63L199.84 30.26H191.57L192.69 3.63L174.96 2.82L173.54 54.95H190.23L190.75 38.71H199.32L199.47 55.84L218.09 54.95L216.9 2.08L199.91 1.63Z" fill="#010101"/>
<path d="M258.9 29.79C258.32 28.15 257.47 26.73 256.37 25.54C255.27 24.35 253.92 23.4 252.33 22.69C250.74 21.97 248.95 21.55 246.97 21.43C246.57 21.38 246.06 21.36 245.44 21.37C244.82 21.38 244.15 21.38 243.43 21.37C242.71 21.36 241.98 21.31 241.25 21.24C240.52 21.17 239.85 21.04 239.24 20.85C238.63 20.66 238.14 20.41 237.75 20.07C237.36 19.73 237.16 19.3 237.14 18.75C237.12 18.28 237.24 17.87 237.51 17.53C237.78 17.18 238.14 16.91 238.59 16.7C239.04 16.49 239.55 16.32 240.12 16.2C240.69 16.08 241.26 15.98 241.81 15.92C242.37 15.86 242.9 15.82 243.41 15.81C243.92 15.8 244.34 15.79 244.66 15.79C246.42 15.79 248.23 15.98 250.08 16.36C251.93 16.74 253.7 17.22 255.39 17.79L256.81 2.74C255.72 2.22 254.56 1.79 253.35 1.44C252.13 1.09 250.89 0.81 249.61 0.59C248.33 0.37 247.05 0.21 245.75 0.13C244.46 0.04 243.2 0 241.99 0C239.26 0 236.61 0.43 234.06 1.3C231.5 2.17 229.24 3.41 227.26 5.03C225.29 6.65 223.71 8.61 222.53 10.93C221.35 13.24 220.76 15.86 220.76 18.77C220.76 20.9 221.11 22.87 221.8 24.68C222.49 26.5 223.47 28.07 224.72 29.39C225.97 30.71 227.48 31.74 229.23 32.49C230.98 33.23 232.92 33.6 235.06 33.6H236.25C236.75 33.6 237.28 33.63 237.85 33.67C238.42 33.72 239 33.8 239.6 33.91C240.2 34.02 240.73 34.18 241.2 34.39C241.67 34.6 242.06 34.87 242.35 35.21C242.64 35.55 242.8 35.95 242.8 36.42C242.8 37.11 242.59 37.64 242.17 38.01C241.75 38.38 241.23 38.66 240.62 38.84C240.01 39.03 239.37 39.14 238.7 39.17C238.03 39.21 237.46 39.23 236.99 39.23C234.51 39.23 231.98 38.9 229.41 38.25C226.84 37.6 224.5 36.64 222.39 35.38L220.75 50.66C221.82 51.15 223.04 51.68 224.42 52.24C225.8 52.8 227.23 53.32 228.72 53.8C230.21 54.28 231.68 54.68 233.13 55.01C234.58 55.34 235.92 55.49 237.13 55.49C240.28 55.49 243.23 55.07 245.98 54.23C248.73 53.39 251.12 52.13 253.17 50.45C255.22 48.77 256.83 46.66 258.01 44.13C259.19 41.6 259.78 38.64 259.78 35.25C259.78 33.27 259.49 31.46 258.9 29.82V29.79Z" fill="#010101"/>
<path d="M104.92 62.76L90.09 112.15L109.09 114L110.95 105.62H119.44L121.68 114L140.16 111.63L125.63 61.72L104.92 62.76ZM112.52 94.28L115.28 81.38L118.11 94.28H112.52Z" fill="#010101"/>
<path d="M161.79 80.74C163.07 79.75 164.54 79.02 166.2 78.53C167.86 78.04 169.61 77.81 171.45 77.81C172.17 77.81 172.89 77.85 173.61 77.92C174.33 77.99 175.05 78.13 175.77 78.33L177.86 62.68C176.32 61.94 174.65 61.43 172.85 61.16C171.05 60.89 169.29 60.75 167.58 60.75C163.04 60.75 159.02 61.57 155.53 63.2C152.04 64.83 149.12 67.06 146.76 69.87C144.4 72.69 142.61 75.97 141.4 79.71C140.18 83.45 139.57 87.44 139.57 91.67C139.57 94.86 140.15 97.83 141.3 100.59C142.45 103.35 144.04 105.74 146.05 107.76C148.06 109.79 150.43 111.38 153.16 112.54C155.89 113.7 158.84 114.28 161.99 114.28C163.08 114.28 164.23 114.21 165.42 114.06C166.61 113.91 167.8 113.7 169 113.41C170.19 113.13 171.35 112.79 172.48 112.41C173.61 112.03 174.66 111.59 175.63 111.09L177.12 93.66C176.35 94.1 175.51 94.54 174.59 94.96C173.67 95.38 172.73 95.75 171.76 96.07C170.79 96.39 169.81 96.65 168.82 96.85C167.83 97.05 166.87 97.15 165.95 97.15C164.73 97.15 163.62 97 162.6 96.71C161.58 96.41 160.7 95.96 159.96 95.34C159.21 94.72 158.64 93.94 158.23 93C157.82 92.06 157.62 90.95 157.62 89.66C157.62 87.66 158 85.92 158.76 84.43C159.52 82.95 160.54 81.71 161.81 80.72L161.79 80.74Z" fill="#010101"/>
<path d="M178.53 79.3701L189.63 78.78L189.56 113.93L205.28 113.11L208.11 77.96L219.21 77.52L219.58 61.8L178.98 61.87L178.53 79.3701Z" fill="#010101"/>
<path d="M258.9 89.66C258.32 88.02 257.47 86.6 256.37 85.41C255.27 84.22 253.92 83.27 252.33 82.56C250.74 81.84 248.95 81.42 246.97 81.3C246.57 81.25 246.06 81.23 245.44 81.24C244.82 81.25 244.15 81.25 243.43 81.24C242.71 81.23 241.98 81.18 241.25 81.11C240.52 81.04 239.85 80.91 239.24 80.72C238.63 80.53 238.14 80.28 237.75 79.94C237.36 79.61 237.16 79.17 237.14 78.62C237.12 78.15 237.24 77.74 237.51 77.4C237.78 77.05 238.14 76.78 238.59 76.57C239.04 76.36 239.55 76.19 240.12 76.07C240.69 75.95 241.26 75.85 241.81 75.79C242.37 75.73 242.9 75.69 243.41 75.68C243.92 75.67 244.34 75.66 244.66 75.66C246.42 75.66 248.23 75.85 250.08 76.23C251.93 76.61 253.7 77.09 255.39 77.66L256.81 62.61C255.72 62.09 254.56 61.66 253.35 61.31C252.13 60.96 250.89 60.68 249.61 60.46C248.33 60.24 247.05 60.08 245.75 60C244.46 59.91 243.2 59.87 241.99 59.87C239.26 59.87 236.61 60.3 234.06 61.17C231.5 62.04 229.24 63.28 227.26 64.9C225.29 66.52 223.71 68.48 222.53 70.8C221.35 73.11 220.76 75.73 220.76 78.64C220.76 80.77 221.11 82.74 221.8 84.55C222.49 86.37 223.47 87.94 224.72 89.26C225.97 90.58 227.48 91.61 229.23 92.36C230.98 93.1 232.92 93.47 235.06 93.47H236.25C236.75 93.47 237.28 93.5 237.85 93.54C238.42 93.59 239 93.67 239.6 93.78C240.2 93.89 240.73 94.05 241.2 94.26C241.67 94.47 242.06 94.74 242.35 95.08C242.65 95.41 242.8 95.82 242.8 96.29C242.8 96.98 242.59 97.51 242.17 97.88C241.75 98.25 241.23 98.53 240.62 98.71C240.01 98.9 239.37 99.01 238.7 99.04C238.03 99.08 237.46 99.1 236.99 99.1C234.51 99.1 231.98 98.77 229.41 98.12C226.84 97.47 224.5 96.51 222.39 95.25L220.75 110.53C221.82 111.02 223.04 111.55 224.42 112.11C225.8 112.67 227.23 113.19 228.72 113.67C230.21 114.15 231.68 114.55 233.13 114.88C234.58 115.21 235.92 115.36 237.13 115.36C240.28 115.36 243.23 114.94 245.98 114.1C248.73 113.26 251.12 112 253.17 110.32C255.22 108.64 256.83 106.53 258.01 104C259.19 101.47 259.78 98.51 259.78 95.12C259.78 93.14 259.49 91.33 258.9 89.69V89.66Z" fill="#010101"/>
<path d="M43.02 40.1L43.05 29.81L46.34 41.36C50.05 42.99 53.43 45.22 56.34 47.95L63.17 27.36L63.02 56.06L80.01 55.32L83.43 0.890015H63.39L53.26 26.92L45.66 2.37001L26.51 3.11001L25.99 38.88C27.95 38.55 29.97 38.37 32.03 38.37C35.87 38.37 39.56 38.98 43.02 40.1Z" fill="#010101"/>
<path d="M65.32 61.35C66.77 65.21 67.57 69.39 67.57 73.75C67.57 84.05 63.15 93.32 56.09 99.79L55.75 114.82L74.6 114.45L74.53 92.5L87.57 92.13L88.31 80.64H74.6V75.97L90.39 75.15C90.59 72.83 90.75 70.53 90.87 68.25C90.99 65.98 91.13 63.68 91.28 61.35H65.31H65.32Z" fill="#010101"/>
<path d="M32.9 105.98C51.0702 105.98 65.8 91.3173 65.8 73.23C65.8 55.1427 51.0702 40.48 32.9 40.48C14.7298 40.48 0 55.1427 0 73.23C0 91.3173 14.7298 105.98 32.9 105.98Z" fill="#010101"/>
<path d="M23.19 75.47L19.59 60.16L10.7 60.98L19.14 87.22L28.44 86.7L35.2999 60.72L26.67 60.16L23.19 75.47Z" fill="white"/>
<path d="M54.66 74.23C54.37 73.4 53.94 72.69 53.39 72.09C52.83 71.49 52.16 71.01 51.36 70.65C50.56 70.29 49.66 70.08 48.66 70.02C48.46 70 48.2 69.99 47.89 69.99C47.58 69.99 47.24 69.99 46.88 69.99C46.52 69.99 46.15 69.96 45.78 69.92C45.41 69.88 45.07 69.82 44.77 69.72C44.46 69.63 44.21 69.5 44.02 69.33C43.83 69.16 43.72 68.94 43.71 68.67C43.7 68.43 43.76 68.23 43.9 68.05C44.04 67.88 44.22 67.74 44.44 67.63C44.67 67.52 44.92 67.44 45.21 67.38C45.5 67.32 45.78 67.27 46.06 67.24C46.34 67.21 46.61 67.19 46.87 67.18C47.13 67.18 47.34 67.18 47.5 67.18C48.39 67.18 49.3 67.28 50.23 67.47C51.16 67.66 52.05 67.9 52.9 68.19L53.61 60.61C53.06 60.35 52.48 60.13 51.87 59.96C51.26 59.79 50.63 59.64 49.99 59.53C49.35 59.42 48.7 59.34 48.05 59.3C47.4 59.26 46.77 59.23 46.16 59.23C44.78 59.23 43.45 59.45 42.17 59.88C40.88 60.32 39.74 60.94 38.75 61.76C37.76 62.58 36.96 63.56 36.37 64.73C35.78 65.89 35.48 67.21 35.48 68.68C35.48 69.75 35.66 70.74 36.01 71.66C36.36 72.58 36.85 73.36 37.48 74.03C38.11 74.7 38.87 75.22 39.75 75.59C40.63 75.96 41.61 76.15 42.68 76.15H43.28C43.53 76.15 43.8 76.16 44.09 76.19C44.38 76.22 44.67 76.26 44.97 76.31C45.27 76.37 45.54 76.45 45.78 76.55C46.02 76.66 46.21 76.79 46.36 76.96C46.51 77.13 46.59 77.33 46.59 77.57C46.59 77.92 46.48 78.19 46.27 78.37C46.06 78.56 45.8 78.7 45.49 78.79C45.18 78.88 44.86 78.94 44.52 78.96C44.18 78.98 43.89 78.99 43.66 78.99C42.41 78.99 41.14 78.83 39.84 78.5C38.55 78.17 37.37 77.69 36.31 77.05L35.49 84.74C36.03 84.99 36.64 85.25 37.34 85.53C38.03 85.81 38.76 86.07 39.51 86.31C40.26 86.55 41 86.76 41.73 86.92C42.46 87.08 43.13 87.16 43.75 87.16C45.34 87.16 46.82 86.95 48.2 86.53C49.58 86.11 50.79 85.47 51.82 84.63C52.85 83.78 53.66 82.72 54.26 81.45C54.85 80.17 55.15 78.69 55.15 76.98C55.15 75.98 55 75.07 54.71 74.25L54.66 74.23Z" fill="white"/>
</g>
<defs>
<clipPath id="clip0_18_2395">
<rect width="259.78" height="115.34" fill="white"/>
</clipPath>
</defs>
</svg>
