<?xml version="1.0" encoding="utf-8"?>
<!-- Generator: Adobe Illustrator 26.5.0, SVG Export Plug-In . SVG Version: 6.00 Build 0)  -->
<svg version="1.1" id="Layer_1" xmlns="http://www.w3.org/2000/svg" xmlns:xlink="http://www.w3.org/1999/xlink" x="0px" y="0px"
	 viewBox="0 0 152.7 45.9" style="enable-background:new 0 0 152.7 45.9;" xml:space="preserve">
<style type="text/css">
	.st0{fill:#FFFFFF;}
	.st1{fill:#9E9E9E;}
</style>
<path class="st0" d="M76.2,9.2c-1.5,0-2.6,1.2-2.6,2.6s1.2,2.6,2.6,2.6H79c1.5,0,2.6-1.2,2.6-2.6S80.5,9.2,79,9.2H76.2z"/>
<path class="st0" d="M80.4,18h-8.5V5.7h8.5c1.5,0,2.6-1.2,2.6-2.6c0-1.4-1.2-2.6-2.6-2.6H69.4c-0.1,0-0.1,0-0.2,0
	c-1.5,0-2.6,1.2-2.6,2.6v17.6c0,1.4,1.2,2.6,2.6,2.6c0.2,0,0.4,0,0.5-0.1h10.6c1.5,0,2.6-1.2,2.6-2.6S81.8,18,80.4,18z"/>
<path class="st0" d="M130.2,9.2h-2.8c-1.5,0-2.6,1.2-2.6,2.6s1.2,2.6,2.6,2.6h2.8c1.5,0,2.6-1.2,2.6-2.6S131.6,9.2,130.2,9.2z"/>
<path class="st0" d="M131.5,0.5h-10.9c-0.1,0-0.1,0-0.2,0c-1.5,0-2.6,1.2-2.6,2.6v17.6c0,1.4,1.2,2.6,2.6,2.6s2.6-1.2,2.6-2.6v-15
	h8.5c1.5,0,2.6-1.2,2.6-2.6C134.1,1.6,133,0.5,131.5,0.5z"/>
<path class="st0" d="M12.8,8c-1.5,0-2.6,1.2-2.6,2.6v10c0,1.4,1.2,2.6,2.6,2.6c1.4,0,2.6-1.2,2.6-2.6v-10C15.4,9.2,14.3,8,12.8,8z"
	/>
<path class="st0" d="M19.8,0.5h-14c-1.5,0-2.6,1.2-2.6,2.6s1.2,2.6,2.6,2.6h14c1.5,0,2.6-1.2,2.6-2.6S21.2,0.5,19.8,0.5z"/>
<path class="st0" d="M63.5,18.3l-6-4.3c-1.2-0.8-2.8-0.4-3.6,0.8c-0.8,1.2-0.4,2.8,0.8,3.6l6,4.3c0.4,0.3,0.9,0.4,1.4,0.4
	c0.9,0,1.7-0.4,2.2-1.2C65.1,20.7,64.7,19.1,63.5,18.3z"/>
<path class="st0" d="M63.5,5.4c1.2-0.8,1.6-2.4,0.8-3.6c-0.8-1.2-2.4-1.6-3.6-0.8l-9.3,6V3.1c0-1.4-1.2-2.6-2.6-2.6
	s-2.6,1.2-2.6,2.6v17.6c0,1.4,1.2,2.6,2.6,2.6s2.6-1.2,2.6-2.6v-7.4L63.5,5.4L63.5,5.4z"/>
<path class="st0" d="M28.5,11.3c-1.3-0.6-2.9-0.1-3.5,1.2l-3.4,7c-0.6,1.3-0.1,2.9,1.2,3.5c0.4,0.2,0.8,0.3,1.2,0.3
	c1,0,1.9-0.5,2.4-1.5l3.4-7C30.4,13.5,29.8,11.9,28.5,11.3L28.5,11.3z"/>
<path class="st0" d="M43.7,19.5L35.1,1.9c-0.6-1.3-2.2-1.8-3.5-1.2c-1.3,0.6-1.8,2.2-1.2,3.5L39,21.8c0.5,0.9,1.4,1.5,2.4,1.5
	c0.4,0,0.8-0.1,1.2-0.3C43.8,22.4,44.3,20.8,43.7,19.5L43.7,19.5z"/>
<path class="st0" d="M104.1,0.1c-6.3,0-11.4,5.1-11.4,11.4s5.1,11.4,11.4,11.4c6.3,0,11.4-5.1,11.4-11.4
	C115.5,5.2,110.4,0.1,104.1,0.1z M104.1,17.7c-3.4,0-6.2-2.8-6.2-6.2s2.8-6.2,6.2-6.2c3.4,0,6.2,2.8,6.2,6.2S107.5,17.7,104.1,17.7z
	"/>
<path class="st0" d="M148.7,9.2h-2.8c-1.5,0-2.6,1.2-2.6,2.6s1.2,2.6,2.6,2.6h2.8c1.5,0,2.6-1.2,2.6-2.6S150.2,9.2,148.7,9.2z"/>
<path class="st0" d="M150.1,0.5h-10.9c-0.1,0-0.1,0-0.2,0c-1.5,0-2.6,1.2-2.6,2.6v17.6c0,1.4,1.2,2.6,2.6,2.6s2.6-1.2,2.6-2.6v-15
	h8.5c1.5,0,2.6-1.2,2.6-2.6C152.7,1.6,151.5,0.5,150.1,0.5z"/>
<path class="st1" d="M42.9,27.9h16.9v4.4h-5.7v13.5h-5.6V32.4h-5.7L42.9,27.9L42.9,27.9z"/>
<path class="st1" d="M62.4,45.9v-18h9.3c1.7,0,3,0.1,3.9,0.4c0.9,0.3,1.6,0.8,2.2,1.6c0.6,0.8,0.8,1.8,0.8,2.9c0,1-0.2,1.9-0.6,2.6
	c-0.4,0.7-1,1.3-1.8,1.8c-0.5,0.3-1.1,0.5-2,0.7c0.7,0.2,1.1,0.4,1.4,0.7c0.2,0.1,0.5,0.5,0.9,0.9c0.4,0.5,0.6,0.9,0.8,1.1l2.7,5.2
	h-6.3l-3-5.5c-0.4-0.7-0.7-1.2-1-1.4c-0.4-0.3-0.9-0.4-1.4-0.4H68v7.3L62.4,45.9L62.4,45.9z M68,35.2h2.3c0.3,0,0.7-0.1,1.5-0.2
	c0.4-0.1,0.7-0.3,0.9-0.6c0.2-0.3,0.3-0.7,0.3-1c0-0.6-0.2-1-0.6-1.3c-0.4-0.3-1.1-0.5-2.1-0.5H68V35.2z"/>
<path class="st1" d="M92.9,42.9h-6.3l-0.9,3h-5.7l6.8-18h6.1l6.8,18h-5.8L92.9,42.9L92.9,42.9z M91.8,39.1l-2-6.5l-2,6.5H91.8z"/>
<path class="st1" d="M98.3,27.9h5.8l4.1,12.9l4-12.9h5.6l-6.7,18h-6L98.3,27.9z"/>
<path class="st1" d="M119.6,27.9h14.9v3.8h-9.3v2.9h8.7v3.7h-8.7v3.5h9.6v4.1h-15.2V27.9z"/>
<path class="st1" d="M137.8,27.9h5.6v13.5h8.7v4.4h-14.2L137.8,27.9L137.8,27.9z"/>
<path class="st1" d="M5.8,39.7c-0.5,2.7,0.2,3.7,1.4,3.7c2.9,0,9-5.6,11.2-8c0.5-0.5,1.4-0.4,1.8,0.1c0.4,0.4,0.2,1.2-0.2,1.8
	c-1.2,1.4-4.1,4.1-7.1,6.1c-2.5,1.7-5.1,3-7,2.7c-1.5-0.2-2.5-1.4-2.6-4c0-0.9,0-2,0.1-3.2c0.1-0.6,0.7-0.9,1.3-0.6l0.2,0.1
	c0.3,0.1,0.6,0.3,0.7,0.6C5.8,39.1,5.8,39.4,5.8,39.7L5.8,39.7z"/>
<path class="st1" d="M20.9,36.8c0.6-1.3,1.4-2.6,2.2-3.7c1-1.4,2.4-2.8,4.2-3c1.4-0.1,2.4,0.8,2.7,2.3c0.3,1.5,0,3.4-0.2,4.8
	c-0.3,2.4-0.6,4.5,1.5,3.5c4.9-2.1,8.2-6.8,12.1-10.2c0.4-0.4,3.9-0.7,0.9,2.2C41,35.9,37.5,40.8,32.4,43c-2.4,1-5.2,0.9-5.3-2.8
	c-0.1-1.3,0.2-2.6,0.3-3.8c0.5-3.5,0.2-5.2-2.5-1.6c-1.2,1.6-2.1,3.5-2.9,5.3c-0.4,0.8-0.9,2.1-1.6,2.7c-0.5,0.5-1.2,0.5-1.8,0
	c-0.4-0.4-0.6-0.9-0.7-1.4c-0.1-1,0.1-2.3,0.2-3.2c0.1-0.5,0.1-0.9,0.2-1.4c0.1-0.3,0.1-0.6,0.1-0.9c0.1-1.1,1.5-1.1,2.1-0.3
	c0.2,0.3,0.2,0.6,0.2,0.9C20.9,36.6,20.9,36.7,20.9,36.8L20.9,36.8z"/>
<path class="st1" d="M4.4,28.5c-2.4,0-4.4,2-4.4,4.4s2,4.4,4.4,4.4s4.4-2,4.4-4.4S6.9,28.5,4.4,28.5z M2.3,34.9
	c0,0.1-0.1,0.7-0.1,0.9c0,0,0,0.1,0,0.2c-0.9-0.7-1.5-1.8-1.5-3C0.7,33,0.7,33,0.7,33c0-0.1,0-0.2,0.1-0.1c0,0.1,0.1,0.3,0.3,0.3
	c0.2,0,0.2,0.1,0.2,0.2c0.1,0.1,0.2,0.1,0.3,0.1c0.1,0,0.2,0.1,0.3,0.2c0,0.1,0,0.2,0,0.3c0,0.1-0.1,0.2,0,0.3
	c0.1,0.1,0.2,0.4,0.2,0.4C2.2,34.7,2.3,34.8,2.3,34.9z M4.4,36.7c-0.7,0-1.4-0.2-1.9-0.5c0,0,0-0.1,0-0.1c0-0.1,0-0.1,0-0.2
	c0.1-0.1,0.3-0.2,0.3-0.3C3,35.5,3.4,35,3.4,35c0.1,0,0.2-0.1,0.2-0.3c0-0.2,0.2-0.5,0.1-0.6C3.7,34,3.7,34,3.5,34
	c0,0-0.2-0.1-0.2-0.1c-0.1-0.1-0.2-0.2-0.3-0.2c-0.1-0.1-0.3-0.1-0.4-0.2c-0.1,0-0.5-0.2-0.6-0.1c-0.1,0.1-0.2,0.1-0.3,0
	c-0.1-0.1-0.1-0.1-0.2-0.1c-0.1,0,0-0.1,0-0.2c0-0.1,0-0.2-0.1-0.1c0,0.1-0.2,0.2-0.3,0.1c0-0.1-0.2-0.4,0-0.4c0.2-0.1,0.3,0,0.4,0
	c0,0,0.1,0.2,0.1,0.2c0.1,0,0-0.3,0-0.4c0-0.1,0.5-0.2,0.6-0.2c0.1,0,0.2-0.4,0.3-0.4c0.1,0.1,0.2-0.1,0.3-0.1c0.1,0,0.1,0,0.1-0.1
	c-0.1-0.1-0.1-0.4-0.2-0.5C2.7,31,2.7,31,2.6,30.8c0-0.1-0.1-0.2-0.1-0.1c0,0.1-0.1,0.2-0.2,0.1c0-0.1,0-0.1-0.1-0.1
	c-0.1-0.1-0.1-0.1-0.2-0.1c-0.1,0-0.1,0-0.1,0.1c0,0.1-0.1,0.2,0,0.3c0,0.1,0.1,0.2,0,0.2c-0.1,0-0.1-0.1-0.1,0.2
	c0,0.1-0.1,0-0.1-0.1c0-0.1,0-0.2-0.1-0.2c-0.1,0-0.1-0.1-0.2-0.2c-0.1-0.1-0.2,0-0.2-0.1c0-0.1,0-0.1,0-0.1
	c0.1-0.1,0.1-0.1,0.2-0.2c0,0,0.1,0,0.1,0c0.1,0,0.1,0,0.2,0c0,0,0.1,0,0.1-0.1c0,0-0.1,0-0.1-0.1c0-0.1,0,0,0.1-0.2
	c0.3-0.3,0.6-0.5,1-0.7c0,0,0,0.1,0,0.1c0,0.2,0,0.1,0.1,0.2c0,0.1-0.1,0.2-0.1,0.3c0,0.1,0.1,0.2,0.1,0.4c0.1,0.2,0.2,0.4,0.3,0.4
	c0.1,0,0.1,0.1,0.1,0.1c0.1,0,0.1-0.1,0.1-0.3c0-0.1,0.2-0.1,0.3-0.2c0.1-0.1,0.3-0.4,0.4-0.5c0.1-0.1,0.2-0.1,0.1-0.3
	c0-0.1-0.1-0.3,0-0.3c0,0,0.1-0.1,0.1-0.2c0,0,0,0,0,0c1,0,1.9,0.4,2.5,1c0,0-0.1,0-0.1,0c-0.1-0.1-0.1,0-0.1,0c0,0-0.1,0-0.2-0.1
	c-0.1-0.1-0.1-0.1-0.2-0.2c-0.1-0.1-0.1-0.2-0.2-0.1c-0.1,0-0.5,0.4-0.6,0.6c-0.1,0.2-0.4,0.4-0.3,0.5c0.1,0.1,0.2,0.1,0.2,0.2
	c0,0.1,0,0.1,0.1,0.2c0,0,0.1,0.1,0.2,0c0.1-0.1,0.1-0.2,0.1-0.2C6,30.9,6,30.9,5.9,31c0,0.1-0.1,0.2-0.2,0.2
	c-0.1,0-0.3-0.1-0.3-0.1c0,0-0.1,0.1-0.1,0.1c0,0-0.2,0.2-0.3,0.2c-0.1,0-0.3,0-0.3,0.1c0.1,0.1,0.3,0.3,0.2,0.3
	c-0.1,0-0.2,0-0.3,0.1c0,0.1-0.1,0.1,0,0.2c0,0.1,0.1,0.2,0.2,0.1c0.1,0,0.2-0.1,0.3-0.2c0-0.1,0.1-0.2,0.2-0.2c0.1,0,0.3,0,0.2,0.1
	c0,0,0,0.3,0.1,0.2c0.1,0,0.1-0.1,0.2-0.1c0,0,0.1,0.1,0.1,0.1c0,0,0.1,0.1,0.1,0c0-0.1,0,0,0.1,0c0.1,0,0.2,0,0.3,0.1
	c0,0,0.1,0.1,0,0.2c-0.1,0.1-0.2,0.1-0.3,0.1c-0.1-0.1-0.2,0.1-0.4,0s-0.1-0.2-0.2-0.2c-0.2-0.1-0.5,0-0.6,0c-0.1,0-0.1,0-0.2,0.1
	c0,0.1-0.4,0.4-0.4,0.6c0,0.2-0.3,0.7,0.4,0.8c0.4,0.1,0.6-0.1,0.5,0c0,0.1,0.1,0.1,0.1,0.2c0.1,0.1,0.2,1,0.2,1.1
	c0,0.1-0.1,0.4,0.1,0.4c0.2,0,0.4-0.2,0.5-0.3c0.1-0.2,0.1-0.3,0.2-0.4c0.1-0.1,0.2-0.1,0.2-0.2c0-0.1,0-0.4,0-0.5
	c0.1-0.1,0.4-0.4,0.4-0.5c0-0.1,0.1-0.2,0-0.2c-0.1,0-0.3,0-0.4-0.1c-0.1-0.1-0.2-0.3-0.2-0.4c0,0,0.1,0,0.1,0.1
	c0,0.1,0.2,0.4,0.4,0.3c0.2-0.1,0.4-0.1,0.4-0.2c0-0.1-0.1-0.2-0.2-0.2c-0.1,0-0.2-0.1-0.2-0.1c0-0.1,0,0,0.1,0
	c0.1,0,0.1,0.1,0.3,0.1c0.2,0,0.3,0.2,0.4,0.2c0.1,0.1,0.2,0.5,0.3,0.6c0,0,0,0,0.1,0C7.8,35.4,6.3,36.8,4.4,36.7L4.4,36.7z"/>
</svg>
