<svg width="176" height="74" viewBox="0 0 176 74" fill="none" xmlns="http://www.w3.org/2000/svg">
<path d="M86.2496 23.9812C84.7984 23.9812 83.6279 25.1549 83.6279 26.5982C83.6279 28.0415 84.8037 29.2152 86.2496 29.2152H89.0672C90.5184 29.2152 91.6888 28.0415 91.6888 26.5982C91.6888 25.1549 90.5131 23.9812 89.0672 23.9812H86.2496Z" fill="white"/>
<path d="M90.4124 32.7151H81.9119V20.4338H90.4124C91.8636 20.4338 93.0341 19.2601 93.0341 17.8168C93.0341 16.3735 91.8583 15.1998 90.4124 15.1998H79.4915C79.4227 15.1998 79.3538 15.1892 79.285 15.1892C77.8338 15.1892 76.6633 16.3629 76.6633 17.8062V35.3903C76.6633 36.8388 77.8391 38.0072 79.285 38.0072C79.4703 38.0072 79.6504 37.9861 79.8252 37.9491H90.4124C91.8636 37.9491 93.0341 36.7754 93.0341 35.3321C93.0341 33.8888 91.8583 32.7151 90.4124 32.7151Z" fill="white"/>
<path d="M140.213 23.9812H137.396C135.944 23.9812 134.774 25.1549 134.774 26.5982C134.774 28.0415 135.95 29.2152 137.396 29.2152H140.213C141.664 29.2152 142.835 28.0415 142.835 26.5982C142.835 25.1549 141.659 23.9812 140.213 23.9812Z" fill="white"/>
<path d="M141.564 15.1998H130.643C130.574 15.1998 130.505 15.1892 130.436 15.1892C128.985 15.1892 127.815 16.3629 127.815 17.8062V35.3903C127.815 36.8388 128.99 38.0072 130.436 38.0072C131.882 38.0072 133.058 36.8336 133.058 35.3903V20.4338H141.564C143.015 20.4338 144.185 19.2601 144.185 17.8168C144.185 16.3735 143.01 15.1998 141.564 15.1998Z" fill="white"/>
<path d="M22.8533 22.76C21.4022 22.76 20.2317 23.9337 20.2317 25.377V35.3639C20.2317 36.8124 21.4075 37.9808 22.8533 37.9808C24.2992 37.9808 25.475 36.8072 25.475 35.3639V25.377C25.475 23.9284 24.2992 22.76 22.8533 22.76Z" fill="white"/>
<path d="M29.8444 15.2156H15.8622C14.4111 15.2156 13.2406 16.3893 13.2406 17.8326C13.2406 19.2759 14.4164 20.4496 15.8622 20.4496H29.8444C31.2955 20.4496 32.466 19.2759 32.466 17.8326C32.466 16.3893 31.2903 15.2156 29.8444 15.2156Z" fill="white"/>
<path d="M73.528 33.0799L67.4955 28.7342C66.2774 27.9517 64.6514 28.3006 63.8676 29.5166C63.0837 30.7326 63.4333 32.3556 64.6514 33.1381L70.6839 37.4839C71.1235 37.7694 71.616 37.9015 72.1033 37.9015C72.9666 37.9015 73.8087 37.4786 74.3118 36.7014C75.0957 35.4855 74.7461 33.8624 73.528 33.0799Z" fill="white"/>
<path d="M73.5279 20.1218C74.7461 19.3394 75.0956 17.7163 74.3118 16.5003C73.5279 15.2844 71.902 14.9354 70.6838 15.7179L61.3359 21.7343V17.8062C61.3359 16.3576 60.1602 15.1892 58.7143 15.1892C57.2684 15.1892 56.0927 16.3629 56.0927 17.8062V35.3903C56.0927 36.8388 57.2684 38.0072 58.7143 38.0072C60.1602 38.0072 61.3359 36.8336 61.3359 35.3903V27.9675L73.5279 20.1165V20.1218Z" fill="white"/>
<path d="M38.5568 26.0379C37.2539 25.3982 35.6809 25.9374 35.0453 27.238L31.6504 34.2378C31.0149 35.5384 31.5498 37.1033 32.8527 37.743C33.2234 37.9227 33.6206 38.0126 34.0073 38.0126C34.9765 38.0126 35.9086 37.4733 36.3641 36.5481L39.759 29.5484C40.3946 28.2478 39.8596 26.6829 38.5568 26.0432V26.0379Z" fill="white"/>
<path d="M53.7517 34.2377L45.1135 16.6537C44.4779 15.3531 42.905 14.8191 41.6021 15.4535C40.2992 16.088 39.7643 17.6582 40.3998 18.9587L49.038 36.5428C49.4935 37.468 50.4256 38.0072 51.3949 38.0072C51.7815 38.0072 52.1787 37.9226 52.5494 37.7376C53.8523 37.1032 54.3872 35.533 53.7517 34.2324V34.2377Z" fill="white"/>
<path d="M114.113 14.8296C107.811 14.8296 102.684 19.9473 102.684 26.2439C102.684 32.5405 107.811 37.6529 114.113 37.6529C120.416 37.6529 125.548 32.5352 125.548 26.2439C125.548 19.9525 120.421 14.8296 114.113 14.8296ZM114.113 32.4136C110.702 32.4136 107.927 29.6433 107.927 26.2386C107.927 22.8339 110.702 20.0636 114.113 20.0636C117.524 20.0636 120.299 22.8339 120.299 26.2386C120.299 29.6433 117.524 32.4136 114.113 32.4136Z" fill="white"/>
<path d="M158.787 23.9812H155.97C154.518 23.9812 153.348 25.1549 153.348 26.5982C153.348 28.0415 154.524 29.2152 155.97 29.2152H158.787C160.238 29.2152 161.409 28.0415 161.409 26.5982C161.409 25.1549 160.233 23.9812 158.787 23.9812Z" fill="white"/>
<path d="M160.138 15.1998H149.217C149.148 15.1998 149.079 15.1892 149.01 15.1892C147.559 15.1892 146.389 16.3629 146.389 17.8062V35.3903C146.389 36.8388 147.564 38.0072 149.01 38.0072C150.456 38.0072 151.632 36.8336 151.632 35.3903V20.4338H160.138C161.589 20.4338 162.759 19.2601 162.759 17.8168C162.759 16.3735 161.584 15.1998 160.138 15.1998Z" fill="white"/>
<path d="M52.9362 42.6914H69.8471V47.1271H64.1748V60.6614H58.6137V47.1271H52.9415V42.6914H52.9362Z" fill="#1D1D1B"/>
<path d="M72.437 60.6614V42.6914H81.7108C83.432 42.6914 84.7455 42.8394 85.6512 43.1302C86.5568 43.421 87.293 43.9708 87.8491 44.7638C88.4052 45.5622 88.6859 46.5297 88.6859 47.6769C88.6859 48.6761 88.4741 49.5326 88.0451 50.2569C87.6214 50.9812 87.0335 51.568 86.2867 52.0174C85.8101 52.3029 85.1586 52.5408 84.3324 52.7258C84.9944 52.9479 85.4764 53.1699 85.7783 53.3867C85.9848 53.5347 86.2814 53.8519 86.6681 54.333C87.0547 54.8141 87.3142 55.1895 87.4466 55.4486L90.1424 60.6561H83.8557L80.8845 55.1631C80.5085 54.4546 80.1748 53.9894 79.8783 53.7779C79.4757 53.4977 79.0203 53.3603 78.5171 53.3603H78.0246V60.6561H72.437V60.6614ZM78.0246 49.9714H80.3708C80.625 49.9714 81.1176 49.8921 81.8432 49.7282C82.2139 49.6542 82.5105 49.4691 82.7435 49.1625C82.9766 48.8612 83.0931 48.5122 83.0931 48.121C83.0931 47.5394 82.9077 47.0953 82.5423 46.7834C82.1715 46.4715 81.483 46.3182 80.4661 46.3182H78.0246V49.9714Z" fill="#1D1D1B"/>
<path d="M102.991 57.6955H96.678L95.7988 60.6614H90.1212L96.8898 42.6914H102.959L109.723 60.6614H103.897L102.996 57.6955H102.991ZM101.837 53.8096L99.8504 47.3491L97.8855 53.8096H101.837Z" fill="#1D1D1B"/>
<path d="M108.33 42.6914H114.145L118.197 55.623L122.195 42.6914H127.841L121.157 60.6614H115.13L108.33 42.6914Z" fill="#1D1D1B"/>
<path d="M129.652 42.6914H144.561V46.5297H135.229V49.3846H143.889V53.0483H135.229V56.5905H144.832V60.6614H129.652V42.6914Z" fill="#1D1D1B"/>
<path d="M147.824 42.6914H153.385V56.2363H162.066V60.6614H147.819V42.6914H147.824Z" fill="#1D1D1B"/>
<path d="M15.8252 54.4124C15.3327 57.1087 16.0053 58.092 17.2552 58.0656C20.184 58.018 26.2959 52.4985 28.4197 50.1036C28.9229 49.6013 29.8179 49.6912 30.2522 50.1829C30.6283 50.6005 30.4958 51.4094 30.0245 51.954C28.8593 53.3074 25.9728 56.009 22.954 58.0709C20.4488 59.7785 17.8325 61.0421 15.9523 60.746C14.4959 60.524 13.4737 59.3609 13.3095 56.728C13.2618 55.8187 13.2936 54.7613 13.4472 53.4977C13.5266 52.9003 14.194 52.6307 14.7818 52.8739L14.9566 52.9532C15.2479 53.0536 15.5551 53.2598 15.7034 53.5453C15.8517 53.8308 15.8888 54.1374 15.8305 54.4124H15.8252Z" fill="#1D1D1B"/>
<path d="M30.9566 51.5098C31.5921 50.2199 32.3071 48.9563 33.128 47.809C34.1131 46.4503 35.5166 44.9594 37.2856 44.8273C38.652 44.711 39.6636 45.6044 39.9602 47.09C40.278 48.5492 39.9496 50.4948 39.7589 51.9011C39.4094 54.3013 39.1975 56.3579 41.3002 55.4433C46.1886 53.3232 49.4935 48.6549 53.4127 45.2766C53.8311 44.9013 57.3478 44.5576 54.3448 47.4813C51.0718 50.6216 47.518 55.5649 42.4177 57.7748C40.0026 58.8163 37.2644 58.6947 37.1479 54.978C37.0896 53.6933 37.3068 52.4139 37.4816 51.1715C37.9529 47.7192 37.6351 46.0115 35.0241 49.5378C33.8642 51.1345 32.9427 53.0219 32.1217 54.8617C31.751 55.697 31.1949 56.95 30.5488 57.5263C30.0774 57.9809 29.3783 58.0497 28.7745 57.5263C28.3667 57.1615 28.176 56.6592 28.1125 56.1358C28.0013 55.126 28.1919 53.8572 28.3614 52.9056C28.425 52.4456 28.4938 52.0068 28.5574 51.5468C28.6103 51.2455 28.6633 50.9442 28.6898 50.6481C28.7851 49.5537 30.178 49.5696 30.7447 50.3943C30.9142 50.6745 30.9936 50.9706 30.9672 51.2666C30.9672 51.3565 30.9566 51.4253 30.9513 51.5151L30.9566 51.5098Z" fill="#1D1D1B"/>
<path d="M14.48 43.2412C12.0331 43.2412 10.0417 45.2291 10.0417 47.6716C10.0417 50.1141 12.0331 52.102 14.48 52.102C16.9269 52.102 18.9183 50.1141 18.9183 47.6716C18.9183 45.2291 16.9269 43.2412 14.48 43.2412ZM12.298 49.6436C12.2768 49.781 12.1814 50.3679 12.192 50.4948C12.192 50.5371 12.1814 50.6216 12.1655 50.7115C11.2493 50.0137 10.6561 48.914 10.6508 47.6822C10.6932 47.7403 10.7197 47.7668 10.725 47.735C10.7409 47.6399 10.7409 47.5394 10.7832 47.6081C10.8203 47.6822 10.9315 47.8989 11.1116 47.9359C11.2917 47.9729 11.2758 48.0311 11.3446 48.0998C11.4082 48.1633 11.5724 48.158 11.6465 48.1897C11.7207 48.2214 11.8954 48.3219 11.9325 48.3853C11.9696 48.4488 11.9537 48.5386 11.9166 48.6391C11.8796 48.7395 11.8372 48.8347 11.8901 48.9299C11.9431 49.0197 12.0543 49.2894 12.1391 49.3475C12.2291 49.411 12.3191 49.5061 12.298 49.6436ZM14.48 51.494C13.7809 51.494 13.1242 51.3037 12.5575 50.9759C12.5575 50.9441 12.5575 50.9071 12.5416 50.8648C12.5204 50.775 12.531 50.7274 12.584 50.6639C12.6369 50.6005 12.8541 50.4208 12.9229 50.3467C12.9918 50.2727 13.4208 49.7493 13.479 49.7017C13.5373 49.6594 13.6644 49.5537 13.7068 49.3898C13.7491 49.2259 13.9027 48.9034 13.7968 48.8241C13.7121 48.7607 13.6962 48.7607 13.5796 48.7395C13.5426 48.729 13.4102 48.6338 13.3784 48.6074C13.2989 48.5386 13.1295 48.4276 13.0765 48.3642C13.013 48.2849 12.764 48.2426 12.7005 48.2108C12.6369 48.1791 12.2185 48.0417 12.1232 48.1104C12.0225 48.1844 11.8848 48.2267 11.8319 48.1104C11.7789 47.9941 11.7524 47.9782 11.6783 47.9624C11.6041 47.9465 11.6412 47.8566 11.6412 47.7826C11.6359 47.7033 11.5936 47.624 11.5406 47.6769C11.4929 47.7297 11.3129 47.8725 11.2864 47.8038C11.2599 47.735 11.1328 47.439 11.3234 47.3861C11.5088 47.3332 11.6677 47.365 11.7154 47.4125C11.763 47.4601 11.7948 47.5976 11.8584 47.5817C11.9166 47.5659 11.8213 47.2381 11.8372 47.1535C11.8584 47.0636 12.3615 46.9843 12.4357 46.9473C12.5151 46.9156 12.6528 46.5878 12.6952 46.5614C12.817 46.6459 12.9229 46.4398 12.9865 46.4556C13.05 46.4715 13.0871 46.4556 13.0394 46.3605C12.9865 46.2653 12.9229 45.9851 12.8223 45.8635C12.7217 45.7366 12.7111 45.7049 12.6634 45.5886C12.6157 45.467 12.5628 45.3665 12.5257 45.4458C12.4886 45.5251 12.4092 45.6362 12.3721 45.5357C12.3297 45.43 12.335 45.4353 12.2821 45.3877C12.2291 45.3348 12.1867 45.3242 12.1126 45.3031C12.0384 45.2819 11.9696 45.3084 11.9696 45.3771C11.9749 45.4458 11.9007 45.5727 11.9484 45.6679C11.9961 45.763 12.0384 45.8582 11.9749 45.8899C11.9113 45.9216 11.869 45.763 11.9113 46.112C11.9166 46.1754 11.8213 46.1173 11.8213 46.0485C11.8213 45.9798 11.8531 45.8688 11.7366 45.8688C11.62 45.8688 11.6306 45.7472 11.5512 45.6837C11.4664 45.6256 11.3234 45.7207 11.3446 45.5833C11.3552 45.5304 11.3552 45.4934 11.3552 45.4564C11.4082 45.3824 11.4664 45.3084 11.5194 45.2396C11.5459 45.2185 11.5724 45.2132 11.6094 45.2291C11.6783 45.2608 11.726 45.2608 11.7683 45.2238C11.8107 45.1868 11.8848 45.2026 11.8848 45.1551C11.8848 45.1075 11.7948 45.1075 11.8054 45.0229C11.816 44.9436 11.8531 44.9806 11.869 44.8696C12.1655 44.5946 12.5098 44.3673 12.8858 44.1928C12.8858 44.2404 12.8911 44.2774 12.8858 44.3092C12.87 44.4625 12.9176 44.4096 12.96 44.4678C13.0024 44.5259 12.8911 44.6792 12.87 44.7532C12.8435 44.8273 12.9229 44.9224 13.0077 45.1075C13.0924 45.2925 13.1877 45.5304 13.2725 45.541C13.3572 45.5516 13.336 45.6679 13.3943 45.6256C13.4525 45.5833 13.4631 45.4828 13.5108 45.3401C13.5585 45.1973 13.675 45.2132 13.7968 45.1445C13.9186 45.0757 14.1305 44.7215 14.2099 44.6422C14.2841 44.5629 14.3635 44.5259 14.337 44.3832C14.3105 44.2404 14.2841 44.1241 14.3264 44.0448C14.3476 44.0025 14.3847 43.9232 14.4218 43.8492C14.4376 43.8492 14.4482 43.8492 14.4641 43.8492C15.4333 43.8492 16.3231 44.214 16.9957 44.8061C16.9587 44.8061 16.9322 44.8061 16.9163 44.7955C16.8474 44.7374 16.8263 44.7744 16.7892 44.785C16.7892 44.785 16.6621 44.7638 16.5826 44.6687C16.5032 44.5682 16.4873 44.6052 16.3973 44.5101C16.3072 44.4149 16.286 44.325 16.2013 44.362C16.1113 44.399 15.7352 44.785 15.5869 44.9647C15.4439 45.1392 15.1791 45.3189 15.3115 45.4458C15.4386 45.5727 15.5075 45.5569 15.5234 45.6256C15.5393 45.6996 15.5552 45.7736 15.5763 45.8C15.5975 45.8265 15.7193 45.9269 15.7829 45.8C15.8464 45.6679 15.857 45.578 15.9259 45.5991C16 45.6203 16.0159 45.6679 15.9789 45.7683C15.9418 45.8688 15.9153 46.0168 15.7882 46.0115C15.6664 46.0115 15.5287 45.9322 15.4863 45.9481C15.4439 45.9639 15.4175 46.0009 15.3698 46.038C15.3221 46.075 15.1738 46.2547 15.0785 46.2864C14.9779 46.3129 14.7395 46.2864 14.8031 46.3657C14.8719 46.4503 15.0944 46.6407 14.999 46.6301C14.909 46.6301 14.7501 46.6089 14.7395 46.7041C14.7289 46.794 14.6866 46.8521 14.7078 46.9156C14.7289 46.979 14.7978 47.1112 14.8772 47.0636C14.962 47.0213 15.1209 46.9737 15.1632 46.8786C15.2056 46.7781 15.2533 46.6724 15.3592 46.6777C15.4651 46.6829 15.6187 46.7252 15.6028 46.7728C15.5869 46.8204 15.6346 47.0319 15.6929 46.9949C15.7564 46.9579 15.8094 46.9156 15.8464 46.8997C15.8835 46.8838 15.9312 46.9526 15.9471 46.979C15.963 47.0054 16.0636 47.0583 16.0901 46.9737C16.1113 46.8891 16.1324 46.9526 16.196 46.979C16.2596 47.0054 16.4449 47.0266 16.4714 47.0477C16.4979 47.0689 16.5561 47.1376 16.482 47.2222C16.4079 47.3068 16.3231 47.3438 16.2066 47.2751C16.0848 47.2116 15.9577 47.3279 15.82 47.2645C15.6823 47.2011 15.7458 47.1059 15.5816 47.0425C15.4227 46.979 15.052 47.0583 14.9408 47.09C14.8243 47.1218 14.819 47.1323 14.7713 47.1905C14.7236 47.2434 14.4165 47.5976 14.4165 47.8038C14.4165 48.0099 14.1516 48.5016 14.819 48.6074C15.1897 48.6655 15.4069 48.5016 15.3645 48.6074C15.3221 48.7184 15.4386 48.7237 15.5022 48.8453C15.571 48.9722 15.7246 49.8075 15.7511 49.9449C15.7776 50.0824 15.6823 50.3732 15.8517 50.3467C16.0265 50.3203 16.2596 50.1564 16.3284 49.9978C16.4026 49.8392 16.4131 49.6594 16.5085 49.5696C16.6038 49.4797 16.7203 49.4797 16.7309 49.3475C16.7415 49.2153 16.7044 48.9034 16.768 48.8347C16.8316 48.766 17.1228 48.4382 17.1546 48.306C17.1864 48.1738 17.2288 48.1421 17.107 48.1421C16.9851 48.1421 16.7786 48.1263 16.7256 48.0152C16.6674 47.9042 16.5297 47.698 16.5297 47.6504C16.5297 47.6029 16.6144 47.6081 16.6568 47.7086C16.6991 47.8143 16.8474 48.1263 17.0116 48.0575C17.1758 47.9941 17.4141 47.9148 17.4194 47.809C17.4194 47.7033 17.3453 47.587 17.2606 47.5923C17.1758 47.5976 17.0911 47.5394 17.0911 47.476C17.0911 47.4125 17.107 47.439 17.2076 47.476C17.3082 47.513 17.34 47.5817 17.4883 47.5923C17.6419 47.6029 17.8114 47.7509 17.8961 47.8143C17.9808 47.8831 18.1291 48.3272 18.1609 48.3747C18.1768 48.3959 18.198 48.4065 18.2139 48.4012C17.8749 50.1617 16.3178 51.4993 14.4588 51.4993L14.48 51.494Z" fill="black"/>
</svg>
